<mxfile host="app.diagrams.net" modified="2023-11-27T11:44:53.214Z" agent="Mozilla/5.0 (Windows NT 10.0; Win64; x64; rv:109.0) Gecko/20100101 Firefox/119.0" etag="vp530JDard99unWl42NS" version="21.3.8" type="device">
  <diagram name="Page-1" id="58cdce13-f638-feb5-8d6f-7d28b1aa9fa0">
    <mxGraphModel dx="875" dy="465" grid="1" gridSize="10" guides="1" tooltips="1" connect="1" arrows="1" fold="1" page="1" pageScale="1" pageWidth="1100" pageHeight="850" background="none" math="0" shadow="0">
      <root>
        <mxCell id="0" />
        <mxCell id="1" parent="0" />
        <mxCell id="382b91b5511bd0f7-1" value="" style="ellipse;html=1;shape=startState;fillColor=#000000;strokeColor=#080000;rounded=1;shadow=0;comic=0;labelBackgroundColor=none;fontFamily=Verdana;fontSize=12;fontColor=#000000;align=center;direction=south;" parent="1" vertex="1">
          <mxGeometry x="130" y="135" width="30" height="30" as="geometry" />
        </mxCell>
        <mxCell id="382b91b5511bd0f7-5" value="Activity" style="rounded=1;whiteSpace=wrap;html=1;arcSize=24;fillColor=#ffffc0;strokeColor=#ff0000;shadow=0;comic=0;labelBackgroundColor=none;fontFamily=Verdana;fontSize=12;fontColor=#000000;align=center;" parent="1" vertex="1">
          <mxGeometry x="275" y="660" width="120" height="60" as="geometry" />
        </mxCell>
        <mxCell id="382b91b5511bd0f7-6" value="&lt;div&gt;&lt;b&gt;GoingDown&lt;/b&gt;&lt;/div&gt;&lt;div&gt;&lt;i&gt;Up: OFF&lt;/i&gt;&lt;/div&gt;&lt;div&gt;&lt;i&gt;Down: ON&lt;/i&gt;&lt;/div&gt;" style="rounded=1;whiteSpace=wrap;html=1;arcSize=24;fillColor=#99CCFF;strokeColor=#000000;shadow=0;comic=0;labelBackgroundColor=none;fontFamily=Verdana;fontSize=12;fontColor=#000000;align=center;" parent="1" vertex="1">
          <mxGeometry x="240" y="120" width="120" height="60" as="geometry" />
        </mxCell>
        <mxCell id="3cde6dad864a17aa-3" style="edgeStyle=orthogonalEdgeStyle;html=1;exitX=1;exitY=0.25;entryX=0.25;entryY=0;labelBackgroundColor=none;endArrow=open;endSize=8;strokeColor=#ff0000;fontFamily=Verdana;fontSize=12;align=left;" parent="1" source="382b91b5511bd0f7-7" target="382b91b5511bd0f7-9" edge="1">
          <mxGeometry relative="1" as="geometry" />
        </mxCell>
        <mxCell id="382b91b5511bd0f7-7" value="Activity" style="rounded=1;whiteSpace=wrap;html=1;arcSize=24;fillColor=#ffffc0;strokeColor=#ff0000;shadow=0;comic=0;labelBackgroundColor=none;fontFamily=Verdana;fontSize=12;fontColor=#000000;align=center;" parent="1" vertex="1">
          <mxGeometry x="400" y="760" width="120" height="60" as="geometry" />
        </mxCell>
        <mxCell id="3cde6dad864a17aa-13" style="edgeStyle=elbowEdgeStyle;html=1;exitX=0;exitY=0.75;entryX=1;entryY=0.75;labelBackgroundColor=none;endArrow=open;endSize=8;strokeColor=#ff0000;fontFamily=Verdana;fontSize=12;align=left;" parent="1" source="382b91b5511bd0f7-9" target="382b91b5511bd0f7-10" edge="1">
          <mxGeometry relative="1" as="geometry" />
        </mxCell>
        <mxCell id="382b91b5511bd0f7-9" value="Activity" style="rounded=1;whiteSpace=wrap;html=1;arcSize=24;fillColor=#ffffc0;strokeColor=#ff0000;shadow=0;comic=0;labelBackgroundColor=none;fontFamily=Verdana;fontSize=12;fontColor=#000000;align=center;" parent="1" vertex="1">
          <mxGeometry x="825" y="660" width="120" height="60" as="geometry" />
        </mxCell>
        <mxCell id="382b91b5511bd0f7-10" value="Activity" style="rounded=1;whiteSpace=wrap;html=1;arcSize=24;fillColor=#ffffc0;strokeColor=#ff0000;shadow=0;comic=0;labelBackgroundColor=none;fontFamily=Verdana;fontSize=12;fontColor=#000000;align=center;" parent="1" vertex="1">
          <mxGeometry x="555" y="660" width="120" height="60" as="geometry" />
        </mxCell>
        <mxCell id="3cde6dad864a17aa-5" style="edgeStyle=elbowEdgeStyle;html=1;labelBackgroundColor=none;endArrow=open;endSize=8;strokeColor=#ff0000;fontFamily=Verdana;fontSize=12;align=left;" parent="1" source="2a3bc250acf0617d-7" target="382b91b5511bd0f7-9" edge="1">
          <mxGeometry relative="1" as="geometry" />
        </mxCell>
        <mxCell id="2a3bc250acf0617d-7" value="Container" style="swimlane;whiteSpace=wrap;html=1;rounded=1;shadow=0;comic=0;labelBackgroundColor=none;strokeWidth=1;fontFamily=Verdana;fontSize=12;align=center;" parent="1" vertex="1">
          <mxGeometry x="130" y="845" width="930" height="200" as="geometry" />
        </mxCell>
        <mxCell id="3cde6dad864a17aa-10" style="edgeStyle=elbowEdgeStyle;html=1;labelBackgroundColor=none;endArrow=open;endSize=8;strokeColor=#ff0000;fontFamily=Verdana;fontSize=12;align=left;" parent="2a3bc250acf0617d-7" source="382b91b5511bd0f7-8" target="3cde6dad864a17aa-1" edge="1">
          <mxGeometry relative="1" as="geometry" />
        </mxCell>
        <mxCell id="382b91b5511bd0f7-8" value="Activity" style="rounded=1;whiteSpace=wrap;html=1;arcSize=24;fillColor=#ffffc0;strokeColor=#ff0000;shadow=0;comic=0;labelBackgroundColor=none;fontFamily=Verdana;fontSize=12;fontColor=#000000;align=center;" parent="2a3bc250acf0617d-7" vertex="1">
          <mxGeometry x="215" y="65" width="120" height="60" as="geometry" />
        </mxCell>
        <mxCell id="24f968d109e7d6b4-3" value="" style="ellipse;html=1;shape=endState;fillColor=#000000;strokeColor=#ff0000;rounded=1;shadow=0;comic=0;labelBackgroundColor=none;fontFamily=Verdana;fontSize=12;fontColor=#000000;align=center;" parent="2a3bc250acf0617d-7" vertex="1">
          <mxGeometry x="815" y="80" width="30" height="30" as="geometry" />
        </mxCell>
        <mxCell id="3cde6dad864a17aa-9" style="edgeStyle=elbowEdgeStyle;html=1;labelBackgroundColor=none;endArrow=open;endSize=8;strokeColor=#ff0000;fontFamily=Verdana;fontSize=12;align=left;" parent="2a3bc250acf0617d-7" source="2a3bc250acf0617d-3" target="382b91b5511bd0f7-8" edge="1">
          <mxGeometry relative="1" as="geometry" />
        </mxCell>
        <mxCell id="2a3bc250acf0617d-3" value="" style="ellipse;html=1;shape=startState;fillColor=#000000;strokeColor=#ff0000;rounded=1;shadow=0;comic=0;labelBackgroundColor=none;fontFamily=Verdana;fontSize=12;fontColor=#000000;align=center;direction=south;" parent="2a3bc250acf0617d-7" vertex="1">
          <mxGeometry x="75" y="80" width="30" height="30" as="geometry" />
        </mxCell>
        <mxCell id="3cde6dad864a17aa-11" style="edgeStyle=elbowEdgeStyle;html=1;labelBackgroundColor=none;endArrow=open;endSize=8;strokeColor=#ff0000;fontFamily=Verdana;fontSize=12;align=left;" parent="2a3bc250acf0617d-7" source="3cde6dad864a17aa-1" target="3cde6dad864a17aa-2" edge="1">
          <mxGeometry relative="1" as="geometry" />
        </mxCell>
        <mxCell id="3cde6dad864a17aa-1" value="Activity" style="rounded=1;whiteSpace=wrap;html=1;arcSize=24;fillColor=#ffffc0;strokeColor=#ff0000;shadow=0;comic=0;labelBackgroundColor=none;fontFamily=Verdana;fontSize=12;fontColor=#000000;align=center;" parent="2a3bc250acf0617d-7" vertex="1">
          <mxGeometry x="400" y="65" width="120" height="60" as="geometry" />
        </mxCell>
        <mxCell id="3cde6dad864a17aa-12" style="edgeStyle=elbowEdgeStyle;html=1;labelBackgroundColor=none;endArrow=open;endSize=8;strokeColor=#ff0000;fontFamily=Verdana;fontSize=12;align=left;" parent="2a3bc250acf0617d-7" source="3cde6dad864a17aa-2" target="24f968d109e7d6b4-3" edge="1">
          <mxGeometry relative="1" as="geometry" />
        </mxCell>
        <mxCell id="3cde6dad864a17aa-2" value="Activity" style="rounded=1;whiteSpace=wrap;html=1;arcSize=24;fillColor=#ffffc0;strokeColor=#ff0000;shadow=0;comic=0;labelBackgroundColor=none;fontFamily=Verdana;fontSize=12;fontColor=#000000;align=center;" parent="2a3bc250acf0617d-7" vertex="1">
          <mxGeometry x="585" y="65" width="120" height="60" as="geometry" />
        </mxCell>
        <mxCell id="2a3bc250acf0617d-9" style="edgeStyle=orthogonalEdgeStyle;html=1;labelBackgroundColor=none;endArrow=open;endSize=8;strokeColor=#000000;fontFamily=Verdana;fontSize=12;align=left;" parent="1" source="382b91b5511bd0f7-1" target="382b91b5511bd0f7-6" edge="1">
          <mxGeometry relative="1" as="geometry" />
        </mxCell>
        <mxCell id="2a3bc250acf0617d-11" style="edgeStyle=orthogonalEdgeStyle;html=1;entryX=0.75;entryY=0;labelBackgroundColor=none;endArrow=open;endSize=8;strokeColor=#ff0000;fontFamily=Verdana;fontSize=12;align=left;exitX=0.5;exitY=1;" parent="1" source="382b91b5511bd0f7-7" target="382b91b5511bd0f7-5" edge="1">
          <mxGeometry relative="1" as="geometry">
            <mxPoint x="555" y="650" as="sourcePoint" />
            <Array as="points">
              <mxPoint x="535" y="640" />
              <mxPoint x="365" y="640" />
            </Array>
          </mxGeometry>
        </mxCell>
        <mxCell id="2a3bc250acf0617d-13" style="edgeStyle=orthogonalEdgeStyle;html=1;exitX=1;exitY=0.5;entryX=0;entryY=0.5;labelBackgroundColor=none;endArrow=open;endSize=8;strokeColor=#ff0000;fontFamily=Verdana;fontSize=12;align=left;" parent="1" source="382b91b5511bd0f7-5" target="382b91b5511bd0f7-10" edge="1">
          <mxGeometry relative="1" as="geometry" />
        </mxCell>
        <mxCell id="2a3bc250acf0617d-14" style="edgeStyle=orthogonalEdgeStyle;html=1;exitX=0.5;exitY=0;entryX=1;entryY=0.75;labelBackgroundColor=none;endArrow=open;endSize=8;strokeColor=#ff0000;fontFamily=Verdana;fontSize=12;align=left;" parent="1" source="382b91b5511bd0f7-10" target="382b91b5511bd0f7-7" edge="1">
          <mxGeometry relative="1" as="geometry" />
        </mxCell>
        <mxCell id="2a3bc250acf0617d-15" style="edgeStyle=orthogonalEdgeStyle;html=1;exitX=1;exitY=0.25;entryX=0;entryY=0.25;labelBackgroundColor=none;endArrow=open;endSize=8;strokeColor=#ff0000;fontFamily=Verdana;fontSize=12;align=left;" parent="1" source="382b91b5511bd0f7-10" target="382b91b5511bd0f7-9" edge="1">
          <mxGeometry relative="1" as="geometry" />
        </mxCell>
        <mxCell id="3cde6dad864a17aa-6" style="edgeStyle=elbowEdgeStyle;html=1;labelBackgroundColor=none;endArrow=open;endSize=8;strokeColor=#ff0000;fontFamily=Verdana;fontSize=12;align=left;entryX=0.75;entryY=1;" parent="1" source="2a3bc250acf0617d-7" target="382b91b5511bd0f7-5" edge="1">
          <mxGeometry relative="1" as="geometry">
            <mxPoint x="375" y="855" as="sourcePoint" />
            <mxPoint x="375" y="730" as="targetPoint" />
          </mxGeometry>
        </mxCell>
        <mxCell id="3cde6dad864a17aa-7" style="edgeStyle=elbowEdgeStyle;html=1;labelBackgroundColor=none;endArrow=open;endSize=8;strokeColor=#ff0000;fontFamily=Verdana;fontSize=12;align=left;entryX=0.5;entryY=1;" parent="1" source="2a3bc250acf0617d-7" target="382b91b5511bd0f7-5" edge="1">
          <mxGeometry relative="1" as="geometry">
            <mxPoint x="375" y="855" as="sourcePoint" />
            <mxPoint x="375" y="730" as="targetPoint" />
          </mxGeometry>
        </mxCell>
        <mxCell id="3cde6dad864a17aa-8" style="edgeStyle=elbowEdgeStyle;html=1;labelBackgroundColor=none;endArrow=open;endSize=8;strokeColor=#ff0000;fontFamily=Verdana;fontSize=12;align=left;exitX=0.25;exitY=1;" parent="1" source="382b91b5511bd0f7-5" target="2a3bc250acf0617d-7" edge="1">
          <mxGeometry relative="1" as="geometry">
            <mxPoint x="385" y="865" as="sourcePoint" />
            <mxPoint x="385" y="740" as="targetPoint" />
          </mxGeometry>
        </mxCell>
        <mxCell id="EsP8HirEbeRYzE4WrLtq-1" value="&lt;div&gt;&lt;b&gt;Stopped&lt;/b&gt;&lt;/div&gt;&lt;div&gt;&lt;i&gt;Up: OFF&lt;/i&gt;&lt;/div&gt;&lt;div&gt;&lt;i&gt;Down: OFF&lt;/i&gt;&lt;/div&gt;" style="rounded=1;whiteSpace=wrap;html=1;arcSize=24;fillColor=#99CCFF;strokeColor=#000000;shadow=0;comic=0;labelBackgroundColor=none;fontFamily=Verdana;fontSize=12;fontColor=#000000;align=center;" vertex="1" parent="1">
          <mxGeometry x="480" y="120" width="120" height="60" as="geometry" />
        </mxCell>
        <mxCell id="EsP8HirEbeRYzE4WrLtq-2" value="&lt;div&gt;&lt;b&gt;GoingUp&lt;/b&gt;&lt;/div&gt;&lt;div&gt;&lt;i&gt;Up: ON&lt;/i&gt;&lt;/div&gt;&lt;div&gt;&lt;i&gt;Down: OFF&lt;/i&gt;&lt;/div&gt;" style="rounded=1;whiteSpace=wrap;html=1;arcSize=24;fillColor=#99CCFF;strokeColor=#000000;shadow=0;comic=0;labelBackgroundColor=none;fontFamily=Verdana;fontSize=12;fontColor=#000000;align=center;" vertex="1" parent="1">
          <mxGeometry x="720" y="120" width="120" height="60" as="geometry" />
        </mxCell>
        <mxCell id="EsP8HirEbeRYzE4WrLtq-3" value="&lt;div&gt;&lt;b&gt;Locked&lt;/b&gt;&lt;/div&gt;&lt;div&gt;&lt;i&gt;Up: OFF&lt;/i&gt;&lt;/div&gt;&lt;div&gt;&lt;i&gt;Down: OFF&lt;/i&gt;&lt;/div&gt;" style="rounded=1;whiteSpace=wrap;html=1;arcSize=24;fillColor=#99CCFF;strokeColor=#000000;shadow=0;comic=0;labelBackgroundColor=none;fontFamily=Verdana;fontSize=12;fontColor=#000000;align=center;" vertex="1" parent="1">
          <mxGeometry x="480" y="40" width="120" height="60" as="geometry" />
        </mxCell>
        <mxCell id="EsP8HirEbeRYzE4WrLtq-4" value="&lt;div&gt;&lt;b&gt;Up&lt;/b&gt;&lt;/div&gt;&lt;div&gt;&lt;i&gt;Up: ON&lt;/i&gt;&lt;/div&gt;&lt;div&gt;&lt;i&gt;Down: OFF&lt;/i&gt;&lt;/div&gt;" style="rounded=1;whiteSpace=wrap;html=1;arcSize=24;fillColor=#99CCFF;strokeColor=#000000;shadow=0;comic=0;labelBackgroundColor=none;fontFamily=Verdana;fontSize=12;fontColor=#000000;align=center;" vertex="1" parent="1">
          <mxGeometry x="720" y="240" width="120" height="60" as="geometry" />
        </mxCell>
        <mxCell id="EsP8HirEbeRYzE4WrLtq-5" value="&lt;div&gt;&lt;b&gt;WarnDown&lt;/b&gt;&lt;/div&gt;&lt;div&gt;&lt;i&gt;Up: OFF&lt;/i&gt;&lt;/div&gt;&lt;div&gt;&lt;i&gt;Down: OFF&lt;/i&gt;&lt;/div&gt;" style="rounded=1;whiteSpace=wrap;html=1;arcSize=24;fillColor=#99CCFF;strokeColor=#000000;shadow=0;comic=0;labelBackgroundColor=none;fontFamily=Verdana;fontSize=12;fontColor=#000000;align=center;" vertex="1" parent="1">
          <mxGeometry x="480" y="240" width="120" height="60" as="geometry" />
        </mxCell>
        <mxCell id="EsP8HirEbeRYzE4WrLtq-6" value="&lt;div&gt;&lt;b&gt;UpPermInit&lt;/b&gt;&lt;/div&gt;&lt;div&gt;&lt;i&gt;Up: OFF&lt;/i&gt;&lt;/div&gt;&lt;div&gt;&lt;i&gt;Down: OFF&lt;/i&gt;&lt;/div&gt;" style="rounded=1;whiteSpace=wrap;html=1;arcSize=24;fillColor=#99CCFF;strokeColor=#000000;shadow=0;comic=0;labelBackgroundColor=none;fontFamily=Verdana;fontSize=12;fontColor=#000000;align=center;" vertex="1" parent="1">
          <mxGeometry x="480" y="330" width="120" height="60" as="geometry" />
        </mxCell>
        <mxCell id="EsP8HirEbeRYzE4WrLtq-7" style="edgeStyle=orthogonalEdgeStyle;html=1;labelBackgroundColor=none;endArrow=open;endSize=8;strokeColor=#000000;fontFamily=Verdana;fontSize=12;align=left;exitX=1;exitY=0.25;exitDx=0;exitDy=0;entryX=0;entryY=0.25;entryDx=0;entryDy=0;" edge="1" parent="1" source="382b91b5511bd0f7-6" target="EsP8HirEbeRYzE4WrLtq-1">
          <mxGeometry relative="1" as="geometry">
            <mxPoint x="380" y="135" as="sourcePoint" />
            <mxPoint x="460" y="135" as="targetPoint" />
          </mxGeometry>
        </mxCell>
        <mxCell id="EsP8HirEbeRYzE4WrLtq-12" value="&lt;div&gt;UP&lt;/div&gt;" style="edgeLabel;html=1;align=center;verticalAlign=middle;resizable=0;points=[];" vertex="1" connectable="0" parent="EsP8HirEbeRYzE4WrLtq-7">
          <mxGeometry x="0.1879" y="3" relative="1" as="geometry">
            <mxPoint x="-11" y="-6" as="offset" />
          </mxGeometry>
        </mxCell>
        <mxCell id="EsP8HirEbeRYzE4WrLtq-8" style="edgeStyle=orthogonalEdgeStyle;html=1;labelBackgroundColor=none;endArrow=open;endSize=8;strokeColor=#000000;fontFamily=Verdana;fontSize=12;align=left;exitX=0;exitY=0.75;exitDx=0;exitDy=0;entryX=1;entryY=0.75;entryDx=0;entryDy=0;" edge="1" parent="1" source="EsP8HirEbeRYzE4WrLtq-1" target="382b91b5511bd0f7-6">
          <mxGeometry relative="1" as="geometry">
            <mxPoint x="350" y="210" as="sourcePoint" />
            <mxPoint x="470" y="210" as="targetPoint" />
          </mxGeometry>
        </mxCell>
        <mxCell id="EsP8HirEbeRYzE4WrLtq-10" style="edgeStyle=orthogonalEdgeStyle;html=1;labelBackgroundColor=none;endArrow=open;endSize=8;strokeColor=#000000;fontFamily=Verdana;fontSize=12;align=left;exitX=1;exitY=0.25;exitDx=0;exitDy=0;entryX=0;entryY=0.25;entryDx=0;entryDy=0;" edge="1" parent="1" source="EsP8HirEbeRYzE4WrLtq-1" target="EsP8HirEbeRYzE4WrLtq-2">
          <mxGeometry relative="1" as="geometry">
            <mxPoint x="630" y="110" as="sourcePoint" />
            <mxPoint x="750" y="110" as="targetPoint" />
          </mxGeometry>
        </mxCell>
        <mxCell id="EsP8HirEbeRYzE4WrLtq-11" style="edgeStyle=orthogonalEdgeStyle;html=1;labelBackgroundColor=none;endArrow=open;endSize=8;strokeColor=#000000;fontFamily=Verdana;fontSize=12;align=left;exitX=0;exitY=0.75;exitDx=0;exitDy=0;entryX=1;entryY=0.75;entryDx=0;entryDy=0;" edge="1" parent="1" source="EsP8HirEbeRYzE4WrLtq-2" target="EsP8HirEbeRYzE4WrLtq-1">
          <mxGeometry relative="1" as="geometry">
            <mxPoint x="610" y="200" as="sourcePoint" />
            <mxPoint x="730" y="200" as="targetPoint" />
          </mxGeometry>
        </mxCell>
        <mxCell id="EsP8HirEbeRYzE4WrLtq-14" value="&lt;div&gt;UP&lt;/div&gt;" style="edgeLabel;html=1;align=center;verticalAlign=middle;resizable=0;points=[];" vertex="1" connectable="0" parent="1">
          <mxGeometry x="660.0033333333332" y="126" as="geometry" />
        </mxCell>
        <mxCell id="EsP8HirEbeRYzE4WrLtq-15" value="DOWN" style="edgeLabel;html=1;align=center;verticalAlign=middle;resizable=0;points=[];" vertex="1" connectable="0" parent="1">
          <mxGeometry x="660.0033333333332" y="156" as="geometry" />
        </mxCell>
        <mxCell id="EsP8HirEbeRYzE4WrLtq-16" value="DOWN" style="edgeLabel;html=1;align=center;verticalAlign=middle;resizable=0;points=[];" vertex="1" connectable="0" parent="1">
          <mxGeometry x="420.0033333333332" y="156" as="geometry" />
        </mxCell>
        <mxCell id="EsP8HirEbeRYzE4WrLtq-17" style="edgeStyle=orthogonalEdgeStyle;html=1;labelBackgroundColor=none;endArrow=open;endSize=8;strokeColor=#000000;fontFamily=Verdana;fontSize=12;align=left;exitX=0.75;exitY=0;exitDx=0;exitDy=0;entryX=0;entryY=0.5;entryDx=0;entryDy=0;" edge="1" parent="1" source="382b91b5511bd0f7-6" target="EsP8HirEbeRYzE4WrLtq-3">
          <mxGeometry relative="1" as="geometry">
            <mxPoint x="370" y="145" as="sourcePoint" />
            <mxPoint x="490" y="145" as="targetPoint" />
          </mxGeometry>
        </mxCell>
        <mxCell id="EsP8HirEbeRYzE4WrLtq-18" value="T.MOTION" style="edgeLabel;html=1;align=center;verticalAlign=middle;resizable=0;points=[];fontColor=#FF8000;fontStyle=1" vertex="1" connectable="0" parent="EsP8HirEbeRYzE4WrLtq-17">
          <mxGeometry x="0.1879" y="3" relative="1" as="geometry">
            <mxPoint x="1" y="-6" as="offset" />
          </mxGeometry>
        </mxCell>
        <mxCell id="EsP8HirEbeRYzE4WrLtq-19" style="edgeStyle=orthogonalEdgeStyle;html=1;labelBackgroundColor=none;endArrow=open;endSize=8;strokeColor=#000000;fontFamily=Verdana;fontSize=12;align=left;exitX=1;exitY=0.5;exitDx=0;exitDy=0;entryX=0.25;entryY=0;entryDx=0;entryDy=0;" edge="1" parent="1" source="EsP8HirEbeRYzE4WrLtq-3" target="EsP8HirEbeRYzE4WrLtq-2">
          <mxGeometry relative="1" as="geometry">
            <mxPoint x="689.48" y="60" as="sourcePoint" />
            <mxPoint x="839.48" y="10" as="targetPoint" />
          </mxGeometry>
        </mxCell>
        <mxCell id="EsP8HirEbeRYzE4WrLtq-20" value="2x UP in T.UNLOCK" style="edgeLabel;html=1;align=center;verticalAlign=middle;resizable=0;points=[];" vertex="1" connectable="0" parent="EsP8HirEbeRYzE4WrLtq-19">
          <mxGeometry x="0.1879" y="3" relative="1" as="geometry">
            <mxPoint x="-59" y="-6" as="offset" />
          </mxGeometry>
        </mxCell>
        <mxCell id="EsP8HirEbeRYzE4WrLtq-23" style="edgeStyle=orthogonalEdgeStyle;html=1;labelBackgroundColor=none;endArrow=open;endSize=8;strokeColor=#000000;fontFamily=Verdana;fontSize=12;align=left;exitX=0.5;exitY=1;exitDx=0;exitDy=0;entryX=0.5;entryY=0;entryDx=0;entryDy=0;" edge="1" parent="1" source="EsP8HirEbeRYzE4WrLtq-2" target="EsP8HirEbeRYzE4WrLtq-4">
          <mxGeometry relative="1" as="geometry">
            <mxPoint x="830" y="220" as="sourcePoint" />
            <mxPoint x="950" y="220" as="targetPoint" />
          </mxGeometry>
        </mxCell>
        <mxCell id="EsP8HirEbeRYzE4WrLtq-24" value="T.MOTION" style="edgeLabel;html=1;align=center;verticalAlign=middle;resizable=0;points=[];fontStyle=1;fontColor=#FF8000;" vertex="1" connectable="0" parent="EsP8HirEbeRYzE4WrLtq-23">
          <mxGeometry x="-0.1746" relative="1" as="geometry">
            <mxPoint x="30" y="-5" as="offset" />
          </mxGeometry>
        </mxCell>
        <mxCell id="EsP8HirEbeRYzE4WrLtq-26" style="edgeStyle=orthogonalEdgeStyle;html=1;labelBackgroundColor=none;endArrow=open;endSize=8;strokeColor=#999999;fontFamily=Verdana;fontSize=12;align=left;exitX=0.75;exitY=0;exitDx=0;exitDy=0;entryX=1;entryY=0.25;entryDx=0;entryDy=0;" edge="1" parent="1" source="EsP8HirEbeRYzE4WrLtq-2" target="EsP8HirEbeRYzE4WrLtq-2">
          <mxGeometry relative="1" as="geometry">
            <mxPoint x="809.74" y="60" as="sourcePoint" />
            <mxPoint x="980" y="80" as="targetPoint" />
            <Array as="points">
              <mxPoint x="810" y="110" />
              <mxPoint x="860" y="110" />
              <mxPoint x="860" y="135" />
            </Array>
          </mxGeometry>
        </mxCell>
        <mxCell id="EsP8HirEbeRYzE4WrLtq-27" value="&lt;div&gt;UP&lt;/div&gt;" style="edgeLabel;html=1;align=center;verticalAlign=middle;resizable=0;points=[];fontColor=#999999;" vertex="1" connectable="0" parent="EsP8HirEbeRYzE4WrLtq-26">
          <mxGeometry x="0.1879" y="3" relative="1" as="geometry">
            <mxPoint x="-23" y="-12" as="offset" />
          </mxGeometry>
        </mxCell>
        <mxCell id="EsP8HirEbeRYzE4WrLtq-28" style="edgeStyle=orthogonalEdgeStyle;html=1;labelBackgroundColor=none;endArrow=none;endSize=8;strokeColor=#999999;fontFamily=Verdana;fontSize=12;align=left;entryX=0;entryY=0.25;entryDx=0;entryDy=0;exitX=0.25;exitY=0;exitDx=0;exitDy=0;startArrow=open;startFill=0;endFill=0;fontColor=#999999;" edge="1" parent="1" source="382b91b5511bd0f7-6" target="382b91b5511bd0f7-6">
          <mxGeometry relative="1" as="geometry">
            <mxPoint x="270" y="210" as="sourcePoint" />
            <mxPoint x="230" y="255" as="targetPoint" />
            <Array as="points">
              <mxPoint x="270" y="100" />
              <mxPoint x="220" y="100" />
              <mxPoint x="220" y="135" />
            </Array>
          </mxGeometry>
        </mxCell>
        <mxCell id="EsP8HirEbeRYzE4WrLtq-29" value="DOWN" style="edgeLabel;html=1;align=center;verticalAlign=middle;resizable=0;points=[];fontColor=#999999;" vertex="1" connectable="0" parent="EsP8HirEbeRYzE4WrLtq-28">
          <mxGeometry x="0.1879" y="3" relative="1" as="geometry">
            <mxPoint x="21" y="-14" as="offset" />
          </mxGeometry>
        </mxCell>
        <mxCell id="EsP8HirEbeRYzE4WrLtq-30" style="edgeStyle=orthogonalEdgeStyle;html=1;labelBackgroundColor=none;endArrow=open;endSize=8;strokeColor=#000000;fontFamily=Verdana;fontSize=12;align=left;exitX=0;exitY=0.25;exitDx=0;exitDy=0;entryX=1;entryY=0.25;entryDx=0;entryDy=0;" edge="1" parent="1" source="EsP8HirEbeRYzE4WrLtq-4" target="EsP8HirEbeRYzE4WrLtq-5">
          <mxGeometry relative="1" as="geometry">
            <mxPoint x="700" y="230" as="sourcePoint" />
            <mxPoint x="580" y="230" as="targetPoint" />
          </mxGeometry>
        </mxCell>
        <mxCell id="EsP8HirEbeRYzE4WrLtq-31" value="T.AUTO_CLOSE" style="edgeLabel;html=1;align=center;verticalAlign=middle;resizable=0;points=[];fontStyle=1;fontColor=#FF8000;" vertex="1" connectable="0" parent="EsP8HirEbeRYzE4WrLtq-30">
          <mxGeometry x="0.1722" y="1" relative="1" as="geometry">
            <mxPoint x="10" y="-10" as="offset" />
          </mxGeometry>
        </mxCell>
        <mxCell id="EsP8HirEbeRYzE4WrLtq-32" style="edgeStyle=orthogonalEdgeStyle;html=1;labelBackgroundColor=none;endArrow=open;endSize=8;strokeColor=#000000;fontFamily=Verdana;fontSize=12;align=left;exitX=1;exitY=0.75;exitDx=0;exitDy=0;entryX=0;entryY=0.75;entryDx=0;entryDy=0;" edge="1" parent="1" source="EsP8HirEbeRYzE4WrLtq-5" target="EsP8HirEbeRYzE4WrLtq-4">
          <mxGeometry relative="1" as="geometry">
            <mxPoint x="730" y="265" as="sourcePoint" />
            <mxPoint x="610" y="265" as="targetPoint" />
          </mxGeometry>
        </mxCell>
        <mxCell id="EsP8HirEbeRYzE4WrLtq-33" value="&lt;div&gt;UP&lt;/div&gt;" style="edgeLabel;html=1;align=center;verticalAlign=middle;resizable=0;points=[];" vertex="1" connectable="0" parent="EsP8HirEbeRYzE4WrLtq-32">
          <mxGeometry x="0.1722" y="1" relative="1" as="geometry">
            <mxPoint x="-10" y="-8" as="offset" />
          </mxGeometry>
        </mxCell>
        <mxCell id="EsP8HirEbeRYzE4WrLtq-34" style="edgeStyle=orthogonalEdgeStyle;html=1;labelBackgroundColor=none;endArrow=open;endSize=8;strokeColor=#000000;fontFamily=Verdana;fontSize=12;align=left;exitX=0.75;exitY=0;exitDx=0;exitDy=0;entryX=1;entryY=0.25;entryDx=0;entryDy=0;" edge="1" parent="1" source="EsP8HirEbeRYzE4WrLtq-4" target="EsP8HirEbeRYzE4WrLtq-4">
          <mxGeometry relative="1" as="geometry">
            <mxPoint x="810" y="240" as="sourcePoint" />
            <mxPoint x="840" y="255" as="targetPoint" />
            <Array as="points">
              <mxPoint x="810" y="230" />
              <mxPoint x="860" y="230" />
              <mxPoint x="860" y="255" />
            </Array>
          </mxGeometry>
        </mxCell>
        <mxCell id="EsP8HirEbeRYzE4WrLtq-35" value="&lt;div&gt;UP&lt;br&gt;&lt;/div&gt;" style="edgeLabel;html=1;align=center;verticalAlign=middle;resizable=0;points=[];" vertex="1" connectable="0" parent="EsP8HirEbeRYzE4WrLtq-34">
          <mxGeometry x="0.1879" y="3" relative="1" as="geometry">
            <mxPoint x="-23" y="-12" as="offset" />
          </mxGeometry>
        </mxCell>
        <mxCell id="EsP8HirEbeRYzE4WrLtq-36" value="" style="endArrow=none;html=1;rounded=0;dashed=1;" edge="1" parent="1">
          <mxGeometry width="50" height="50" relative="1" as="geometry">
            <mxPoint x="860" y="240" as="sourcePoint" />
            <mxPoint x="880" y="240" as="targetPoint" />
          </mxGeometry>
        </mxCell>
        <mxCell id="EsP8HirEbeRYzE4WrLtq-37" value="&lt;div style=&quot;font-size: 9px;&quot;&gt;&lt;font style=&quot;font-size: 9px;&quot;&gt;Reset&amp;nbsp;&lt;/font&gt;&lt;/div&gt;&lt;div style=&quot;font-size: 9px;&quot;&gt;&lt;font style=&quot;font-size: 9px;&quot;&gt;timer&lt;/font&gt;&lt;/div&gt;" style="edgeLabel;html=1;align=center;verticalAlign=middle;resizable=0;points=[];" vertex="1" connectable="0" parent="EsP8HirEbeRYzE4WrLtq-36">
          <mxGeometry x="0.4905" relative="1" as="geometry">
            <mxPoint x="21" as="offset" />
          </mxGeometry>
        </mxCell>
        <mxCell id="EsP8HirEbeRYzE4WrLtq-38" style="edgeStyle=orthogonalEdgeStyle;html=1;labelBackgroundColor=none;endArrow=open;endSize=8;strokeColor=#000000;fontFamily=Verdana;fontSize=12;align=left;exitX=0;exitY=0.25;exitDx=0;exitDy=0;entryX=0.366;entryY=1;entryDx=0;entryDy=0;entryPerimeter=0;" edge="1" parent="1" source="EsP8HirEbeRYzE4WrLtq-5" target="382b91b5511bd0f7-6">
          <mxGeometry relative="1" as="geometry">
            <mxPoint x="470" y="260" as="sourcePoint" />
            <mxPoint x="350" y="260" as="targetPoint" />
            <Array as="points">
              <mxPoint x="284" y="255" />
            </Array>
          </mxGeometry>
        </mxCell>
        <mxCell id="EsP8HirEbeRYzE4WrLtq-39" value="T.CLOSE_WARNING" style="edgeLabel;html=1;align=center;verticalAlign=middle;resizable=0;points=[];fontStyle=1;fontColor=#FF8000;" vertex="1" connectable="0" parent="EsP8HirEbeRYzE4WrLtq-38">
          <mxGeometry x="0.1722" y="1" relative="1" as="geometry">
            <mxPoint x="70" y="-10" as="offset" />
          </mxGeometry>
        </mxCell>
        <mxCell id="EsP8HirEbeRYzE4WrLtq-40" style="edgeStyle=orthogonalEdgeStyle;html=1;labelBackgroundColor=none;endArrow=open;endSize=8;strokeColor=#000000;fontFamily=Verdana;fontSize=12;align=left;exitX=0.25;exitY=1;exitDx=0;exitDy=0;entryX=0.75;entryY=1;entryDx=0;entryDy=0;" edge="1" parent="1" source="EsP8HirEbeRYzE4WrLtq-1" target="382b91b5511bd0f7-6">
          <mxGeometry relative="1" as="geometry">
            <mxPoint x="490" y="200" as="sourcePoint" />
            <mxPoint x="370" y="200" as="targetPoint" />
            <Array as="points">
              <mxPoint x="510" y="200" />
              <mxPoint x="330" y="200" />
            </Array>
          </mxGeometry>
        </mxCell>
        <mxCell id="EsP8HirEbeRYzE4WrLtq-41" value="T.AUTO_CLOSE" style="edgeLabel;html=1;align=center;verticalAlign=middle;resizable=0;points=[];fontStyle=1;fontColor=#FF8000;" vertex="1" connectable="0" parent="EsP8HirEbeRYzE4WrLtq-40">
          <mxGeometry x="-0.0835" y="-1" relative="1" as="geometry">
            <mxPoint x="-9" y="-9" as="offset" />
          </mxGeometry>
        </mxCell>
        <mxCell id="EsP8HirEbeRYzE4WrLtq-42" style="edgeStyle=orthogonalEdgeStyle;html=1;labelBackgroundColor=none;endArrow=open;endSize=8;strokeColor=#000000;fontFamily=Verdana;fontSize=12;align=left;exitX=0.5;exitY=1;exitDx=0;exitDy=0;entryX=1;entryY=0.5;entryDx=0;entryDy=0;" edge="1" parent="1" source="EsP8HirEbeRYzE4WrLtq-4" target="EsP8HirEbeRYzE4WrLtq-6">
          <mxGeometry relative="1" as="geometry">
            <mxPoint x="830" y="410" as="sourcePoint" />
            <mxPoint x="950" y="410" as="targetPoint" />
          </mxGeometry>
        </mxCell>
        <mxCell id="EsP8HirEbeRYzE4WrLtq-43" value="&lt;div&gt;UP pressed for T.HOLD_PERM&lt;br&gt;&lt;/div&gt;" style="edgeLabel;html=1;align=center;verticalAlign=middle;resizable=0;points=[];" vertex="1" connectable="0" parent="EsP8HirEbeRYzE4WrLtq-42">
          <mxGeometry x="0.1722" y="1" relative="1" as="geometry">
            <mxPoint x="-10" y="-11" as="offset" />
          </mxGeometry>
        </mxCell>
        <mxCell id="EsP8HirEbeRYzE4WrLtq-44" value="&lt;div&gt;&lt;b&gt;UpPerm&lt;/b&gt;&lt;/div&gt;&lt;div&gt;&lt;i&gt;Up: ON&lt;/i&gt;&lt;/div&gt;&lt;div&gt;&lt;i&gt;Down: OFF&lt;/i&gt;&lt;/div&gt;" style="rounded=1;whiteSpace=wrap;html=1;arcSize=24;fillColor=#99CCFF;strokeColor=#000000;shadow=0;comic=0;labelBackgroundColor=none;fontFamily=Verdana;fontSize=12;fontColor=#000000;align=center;" vertex="1" parent="1">
          <mxGeometry x="240" y="330" width="120" height="60" as="geometry" />
        </mxCell>
        <mxCell id="EsP8HirEbeRYzE4WrLtq-45" style="edgeStyle=orthogonalEdgeStyle;html=1;labelBackgroundColor=none;endArrow=open;endSize=8;strokeColor=#000000;fontFamily=Verdana;fontSize=12;align=left;exitX=0;exitY=0.5;exitDx=0;exitDy=0;entryX=1;entryY=0.5;entryDx=0;entryDy=0;" edge="1" parent="1" source="EsP8HirEbeRYzE4WrLtq-6" target="EsP8HirEbeRYzE4WrLtq-44">
          <mxGeometry relative="1" as="geometry">
            <mxPoint x="460" y="415" as="sourcePoint" />
            <mxPoint x="280" y="485" as="targetPoint" />
          </mxGeometry>
        </mxCell>
        <mxCell id="EsP8HirEbeRYzE4WrLtq-46" value="T.PERM_FLASH" style="edgeLabel;html=1;align=center;verticalAlign=middle;resizable=0;points=[];fontStyle=1;fontColor=#FF8000;" vertex="1" connectable="0" parent="EsP8HirEbeRYzE4WrLtq-45">
          <mxGeometry x="0.1722" y="1" relative="1" as="geometry">
            <mxPoint x="10" y="-11" as="offset" />
          </mxGeometry>
        </mxCell>
        <mxCell id="EsP8HirEbeRYzE4WrLtq-47" style="edgeStyle=orthogonalEdgeStyle;html=1;labelBackgroundColor=none;endArrow=open;endSize=8;strokeColor=#999999;fontFamily=Verdana;fontSize=12;align=left;exitX=1;exitY=0.75;exitDx=0;exitDy=0;entryX=0.75;entryY=1;entryDx=0;entryDy=0;" edge="1" parent="1" source="EsP8HirEbeRYzE4WrLtq-6" target="EsP8HirEbeRYzE4WrLtq-6">
          <mxGeometry relative="1" as="geometry">
            <mxPoint x="600" y="430" as="sourcePoint" />
            <mxPoint x="630" y="445" as="targetPoint" />
            <Array as="points">
              <mxPoint x="610" y="375" />
              <mxPoint x="610" y="410" />
              <mxPoint x="570" y="410" />
            </Array>
          </mxGeometry>
        </mxCell>
        <mxCell id="EsP8HirEbeRYzE4WrLtq-48" value="&lt;div&gt;UP / DOWN&lt;/div&gt;" style="edgeLabel;html=1;align=center;verticalAlign=middle;resizable=0;points=[];fontColor=#999999;" vertex="1" connectable="0" parent="EsP8HirEbeRYzE4WrLtq-47">
          <mxGeometry x="0.1879" y="3" relative="1" as="geometry">
            <mxPoint x="47" y="-23" as="offset" />
          </mxGeometry>
        </mxCell>
        <mxCell id="EsP8HirEbeRYzE4WrLtq-49" style="edgeStyle=orthogonalEdgeStyle;html=1;labelBackgroundColor=none;endArrow=open;endSize=8;strokeColor=#999999;fontFamily=Verdana;fontSize=12;align=left;exitX=1;exitY=0.75;exitDx=0;exitDy=0;entryX=0.75;entryY=1;entryDx=0;entryDy=0;" edge="1" parent="1" source="EsP8HirEbeRYzE4WrLtq-44" target="EsP8HirEbeRYzE4WrLtq-44">
          <mxGeometry relative="1" as="geometry">
            <mxPoint x="360" y="380" as="sourcePoint" />
            <mxPoint x="330" y="395" as="targetPoint" />
            <Array as="points">
              <mxPoint x="370" y="375" />
              <mxPoint x="370" y="410" />
              <mxPoint x="330" y="410" />
            </Array>
          </mxGeometry>
        </mxCell>
        <mxCell id="EsP8HirEbeRYzE4WrLtq-50" value="&lt;div&gt;UP&lt;br&gt;&lt;/div&gt;" style="edgeLabel;html=1;align=center;verticalAlign=middle;resizable=0;points=[];fontColor=#999999;" vertex="1" connectable="0" parent="EsP8HirEbeRYzE4WrLtq-49">
          <mxGeometry x="0.1879" y="3" relative="1" as="geometry">
            <mxPoint x="26" y="-21" as="offset" />
          </mxGeometry>
        </mxCell>
        <mxCell id="EsP8HirEbeRYzE4WrLtq-51" style="edgeStyle=orthogonalEdgeStyle;html=1;labelBackgroundColor=none;endArrow=open;endSize=8;strokeColor=#000000;fontFamily=Verdana;fontSize=12;align=left;exitX=0.25;exitY=0;exitDx=0;exitDy=0;entryX=0.25;entryY=1;entryDx=0;entryDy=0;" edge="1" parent="1" source="EsP8HirEbeRYzE4WrLtq-44" target="382b91b5511bd0f7-6">
          <mxGeometry relative="1" as="geometry">
            <mxPoint x="280" y="260" as="sourcePoint" />
            <mxPoint x="160" y="260" as="targetPoint" />
          </mxGeometry>
        </mxCell>
        <mxCell id="EsP8HirEbeRYzE4WrLtq-52" value="DOWN" style="edgeLabel;html=1;align=center;verticalAlign=middle;resizable=0;points=[];" vertex="1" connectable="0" parent="EsP8HirEbeRYzE4WrLtq-51">
          <mxGeometry x="0.1722" y="1" relative="1" as="geometry">
            <mxPoint x="-19" y="24" as="offset" />
          </mxGeometry>
        </mxCell>
        <mxCell id="EsP8HirEbeRYzE4WrLtq-53" style="edgeStyle=orthogonalEdgeStyle;html=1;labelBackgroundColor=none;endArrow=open;endSize=8;strokeColor=#000000;fontFamily=Verdana;fontSize=12;align=left;exitX=0.25;exitY=0;exitDx=0;exitDy=0;entryX=0.628;entryY=1;entryDx=0;entryDy=0;entryPerimeter=0;" edge="1" parent="1" source="EsP8HirEbeRYzE4WrLtq-4" target="382b91b5511bd0f7-6">
          <mxGeometry relative="1" as="geometry">
            <mxPoint x="490" y="255" as="sourcePoint" />
            <mxPoint x="310" y="180" as="targetPoint" />
            <Array as="points">
              <mxPoint x="750" y="210" />
              <mxPoint x="315" y="210" />
            </Array>
          </mxGeometry>
        </mxCell>
        <mxCell id="EsP8HirEbeRYzE4WrLtq-54" value="DOWN" style="edgeLabel;html=1;align=center;verticalAlign=middle;resizable=0;points=[];" vertex="1" connectable="0" parent="EsP8HirEbeRYzE4WrLtq-53">
          <mxGeometry x="0.1722" y="1" relative="1" as="geometry">
            <mxPoint x="225" y="-10" as="offset" />
          </mxGeometry>
        </mxCell>
        <mxCell id="EsP8HirEbeRYzE4WrLtq-55" style="edgeStyle=orthogonalEdgeStyle;html=1;labelBackgroundColor=none;endArrow=open;endSize=8;strokeColor=#000000;fontFamily=Verdana;fontSize=12;align=left;exitX=0.5;exitY=0;exitDx=0;exitDy=0;entryX=0.5;entryY=1;entryDx=0;entryDy=0;" edge="1" parent="1" source="EsP8HirEbeRYzE4WrLtq-5" target="382b91b5511bd0f7-6">
          <mxGeometry relative="1" as="geometry">
            <mxPoint x="760" y="250" as="sourcePoint" />
            <mxPoint x="325" y="190" as="targetPoint" />
            <Array as="points">
              <mxPoint x="540" y="220" />
              <mxPoint x="300" y="220" />
            </Array>
          </mxGeometry>
        </mxCell>
        <mxCell id="EsP8HirEbeRYzE4WrLtq-56" value="DOWN" style="edgeLabel;html=1;align=center;verticalAlign=middle;resizable=0;points=[];" vertex="1" connectable="0" parent="EsP8HirEbeRYzE4WrLtq-55">
          <mxGeometry x="0.1722" y="1" relative="1" as="geometry">
            <mxPoint x="175" y="3" as="offset" />
          </mxGeometry>
        </mxCell>
      </root>
    </mxGraphModel>
  </diagram>
</mxfile>
